<svg width="225" height="225" viewBox="0 0 225 225" fill="none" xmlns="http://www.w3.org/2000/svg">
<rect x="37" width="150" height="224.91" rx="2" fill="#FF671B"/>
<ellipse cx="93.1338" cy="133.267" rx="10.625" ry="10.6556" fill="#FFE6D9"/>
<path fill-rule="evenodd" clip-rule="evenodd" d="M98.7614 224.91C98.7613 224.94 98.7612 224.97 98.7612 225H154.511C154.511 209.768 142.031 197.421 126.636 197.421C123.411 197.421 120.314 197.963 117.432 198.959C120.143 194.357 121.699 188.988 121.699 183.256C121.699 166.178 107.895 152.334 90.8667 152.334C87.3734 152.334 84.0158 152.917 80.8851 153.991C77.766 145.221 69.4121 138.944 59.5963 138.944C47.1167 138.944 37 149.09 37 161.606C37 161.716 37.0008 161.826 37.0024 161.937L37 161.935L37 224.91H98.7614Z" fill="#FFE6D9"/>
<path d="M62 0H162V72.9699C162 74.0745 161.105 74.9699 160 74.9699H64C62.8954 74.9699 62 74.0745 62 72.9699V0Z" fill="#F0F1F2"/>
<path d="M99.1925 181.994C95.0682 177.761 92.8698 172.153 93.006 166.224C93.1422 160.577 95.4378 155.262 99.4843 151.253C103.541 147.255 108.871 145.012 114.503 144.943C120.486 144.875 126.098 147.196 130.281 151.478C131.526 152.745 132.139 154.491 131.973 156.266C131.808 158.031 130.874 159.631 129.405 160.635C127.003 162.293 123.783 161.991 121.75 159.904C119.892 158.002 117.412 156.959 114.756 156.959C112.071 156.959 109.572 158.022 107.714 159.962C105.856 161.903 104.883 164.449 104.99 167.15C105.185 172.222 109.299 176.357 114.357 176.562C117.178 176.669 119.912 175.567 121.847 173.519C122.256 173.09 122.947 173.07 123.375 173.48C123.812 173.889 123.822 174.582 123.413 175.011C121.04 177.508 117.704 178.873 114.26 178.727C108.093 178.473 103.064 173.421 102.831 167.218C102.704 163.932 103.891 160.811 106.157 158.451C108.433 156.081 111.488 154.784 114.766 154.784C118.005 154.784 121.04 156.061 123.306 158.382C124.6 159.709 126.653 159.904 128.19 158.841C129.123 158.197 129.717 157.183 129.824 156.052C129.931 154.92 129.542 153.808 128.744 152.989C124.97 149.137 119.921 147.05 114.532 147.118C109.465 147.177 104.659 149.195 101.012 152.804C97.3638 156.412 95.2919 161.201 95.1752 166.282C95.0487 171.627 97.0233 176.669 100.749 180.482C104.465 184.295 109.445 186.402 114.766 186.402C120.194 186.402 125.232 184.227 128.968 180.287C129.376 179.858 130.067 179.838 130.495 180.248C130.933 180.658 130.942 181.35 130.534 181.779C126.38 186.158 120.777 188.567 114.756 188.567C108.852 188.567 103.327 186.236 99.1925 181.994ZM126.575 173.704C126.448 172.612 125.855 171.627 124.95 171.003C123.365 169.91 121.215 170.125 119.96 171.5C118.637 172.973 116.741 173.811 114.766 173.811C112.83 173.811 110.963 173.002 109.63 171.588C108.288 170.154 107.616 168.272 107.743 166.302C107.967 162.83 110.739 160.001 114.192 159.728C116.254 159.563 118.277 160.314 119.737 161.776C120.155 162.196 120.155 162.888 119.737 163.308C119.318 163.727 118.628 163.727 118.209 163.308C117.198 162.293 115.797 161.776 114.367 161.893C111.974 162.079 110.058 164.039 109.902 166.448C109.815 167.813 110.282 169.12 111.215 170.115C112.149 171.11 113.414 171.656 114.766 171.656C116.137 171.656 117.451 171.071 118.375 170.056C120.349 167.872 123.715 167.521 126.186 169.228C127.606 170.203 128.53 171.753 128.725 173.47C128.919 175.167 128.374 176.864 127.236 178.122C124.036 181.662 119.503 183.662 114.746 183.662C114.581 183.662 114.425 183.662 114.26 183.652C109.931 183.525 105.846 181.74 102.772 178.619C99.6983 175.499 97.9669 171.383 97.8988 167.033C97.8307 162.469 99.5524 158.168 102.743 154.911C105.934 151.663 110.204 149.868 114.746 149.868C119.172 149.868 123.345 151.575 126.507 154.667C126.935 155.086 126.944 155.769 126.526 156.198C126.108 156.627 125.427 156.637 124.999 156.217C122.236 153.516 118.598 152.033 114.746 152.033C110.778 152.033 107.062 153.594 104.28 156.432C101.498 159.26 99.9999 163.015 100.058 166.994C100.117 170.778 101.624 174.367 104.309 177.088C106.994 179.809 110.544 181.37 114.318 181.477C118.618 181.604 122.742 179.838 125.622 176.649C126.361 175.85 126.701 174.777 126.575 173.704Z" fill="#333333"/>
</svg>
