<svg width="225" height="225" viewBox="0 0 225 225" fill="none" xmlns="http://www.w3.org/2000/svg">
<rect x="31" width="150" height="224.91" rx="2" fill="#FF5347"/>
<ellipse cx="87.1338" cy="133.267" rx="10.625" ry="10.6556" fill="#FFEFEE"/>
<path fill-rule="evenodd" clip-rule="evenodd" d="M92.7614 224.91C92.7613 224.94 92.7612 224.97 92.7612 225H148.511C148.511 209.768 136.031 197.421 120.636 197.421C117.411 197.421 114.314 197.963 111.432 198.96C114.143 194.357 115.699 188.988 115.699 183.256C115.699 166.178 101.895 152.334 84.8665 152.334C81.3732 152.334 78.0157 152.917 74.8851 153.991C71.766 145.221 63.412 138.944 53.5963 138.944C41.1167 138.944 31 149.09 31 161.606C31 161.716 31.0008 161.826 31.0024 161.937L31 161.935L31 224.91H92.7614Z" fill="#FFEFEE"/>
<path d="M56 0H156V72.9699C156 74.0745 155.105 74.9699 154 74.9699H58C56.8954 74.9699 56 74.0745 56 72.9699V0Z" fill="#F0F1F2"/>
<path d="M93.1925 181.994C89.0682 177.761 86.8698 172.153 87.006 166.224C87.1422 160.577 89.4378 155.262 93.4843 151.253C97.5406 147.255 102.871 145.012 108.503 144.943C114.486 144.875 120.098 147.196 124.281 151.478C125.526 152.745 126.139 154.491 125.973 156.266C125.808 158.031 124.874 159.631 123.405 160.635C121.003 162.293 117.783 161.991 115.75 159.904C113.892 158.002 111.412 156.959 108.756 156.959C106.071 156.959 103.572 158.022 101.714 159.962C99.8557 161.903 98.883 164.449 98.99 167.15C99.1845 172.222 103.299 176.357 108.357 176.562C111.178 176.669 113.912 175.567 115.847 173.519C116.256 173.09 116.947 173.07 117.375 173.48C117.812 173.889 117.822 174.582 117.413 175.011C115.04 177.508 111.704 178.873 108.26 178.727C102.093 178.473 97.064 173.421 96.8305 167.218C96.7041 163.932 97.8908 160.811 100.157 158.451C102.433 156.081 105.488 154.784 108.766 154.784C112.005 154.784 115.04 156.061 117.306 158.383C118.6 159.709 120.653 159.904 122.19 158.841C123.123 158.197 123.717 157.183 123.824 156.052C123.931 154.92 123.542 153.808 122.744 152.989C118.97 149.137 113.921 147.05 108.532 147.118C103.465 147.177 98.6593 149.195 95.0115 152.804C91.3638 156.412 89.2919 161.201 89.1752 166.282C89.0487 171.627 91.0233 176.669 94.7489 180.482C98.4647 184.296 103.445 186.402 108.766 186.402C114.194 186.402 119.232 184.227 122.968 180.287C123.376 179.858 124.067 179.839 124.495 180.248C124.933 180.658 124.942 181.35 124.534 181.779C120.38 186.158 114.777 188.567 108.756 188.567C102.852 188.567 97.3266 186.236 93.1925 181.994ZM120.575 173.704C120.448 172.612 119.855 171.627 118.95 171.003C117.365 169.91 115.215 170.125 113.96 171.5C112.637 172.973 110.741 173.811 108.766 173.811C106.83 173.811 104.963 173.002 103.63 171.588C102.288 170.154 101.616 168.272 101.743 166.302C101.967 162.83 104.739 160.001 108.192 159.728C110.254 159.563 112.277 160.314 113.737 161.776C114.155 162.196 114.155 162.888 113.737 163.308C113.318 163.727 112.628 163.727 112.209 163.308C111.198 162.293 109.797 161.776 108.367 161.894C105.974 162.079 104.058 164.039 103.902 166.448C103.815 167.813 104.282 169.12 105.215 170.115C106.149 171.11 107.414 171.656 108.766 171.656C110.137 171.656 111.451 171.071 112.375 170.057C114.349 167.872 117.715 167.521 120.186 169.228C121.606 170.203 122.53 171.754 122.725 173.47C122.919 175.167 122.374 176.864 121.236 178.122C118.036 181.662 113.503 183.662 108.746 183.662C108.581 183.662 108.425 183.662 108.26 183.652C103.931 183.525 99.846 181.74 96.7722 178.619C93.6983 175.499 91.9669 171.383 91.8988 167.033C91.8307 162.469 93.5524 158.168 96.743 154.911C99.9335 151.663 104.204 149.868 108.746 149.868C113.172 149.868 117.345 151.575 120.507 154.667C120.935 155.086 120.944 155.769 120.526 156.198C120.108 156.627 119.427 156.637 118.999 156.217C116.236 153.516 112.598 152.033 108.746 152.033C104.778 152.033 101.062 153.594 98.2799 156.432C95.4979 159.26 93.9999 163.015 94.0582 166.994C94.1166 170.778 95.6243 174.367 98.3091 177.088C100.994 179.809 104.544 181.37 108.318 181.477C112.618 181.604 116.742 179.839 119.622 176.649C120.361 175.85 120.701 174.777 120.575 173.704Z" fill="#333333"/>
</svg>
